<svg width="27" height="27" viewBox="0 0 27 27" fill="none" xmlns="http://www.w3.org/2000/svg">
<rect width="27" height="27" rx="13.5" fill="white"/>
<path d="M20.4551 10.2875C20.1038 9.45084 19.5927 8.69036 18.9503 8.04845C18.3099 7.40544 17.5491 6.8942 16.7112 6.54376C15.8529 6.18303 14.9306 5.99812 13.9993 6.00001H13.968C13.0206 6.0047 12.1046 6.1922 11.2419 6.56095C10.4112 6.91498 9.65757 7.42713 9.02315 8.06876C8.38702 8.70922 7.8818 9.46704 7.53564 10.3C7.17632 11.1662 6.99425 12.0954 7.00014 13.0328C7.00484 14.1172 7.26476 15.1938 7.75016 16.1563V18.5313C7.75016 18.9281 8.07271 19.25 8.46886 19.25H10.8457C11.8148 19.738 12.8841 19.9947 13.9695 20H14.0024C14.9387 20 15.8453 19.8188 16.7003 19.4641C17.5339 19.1178 18.2918 18.6125 18.9315 17.9766C19.5766 17.3375 20.084 16.5906 20.4394 15.7578C20.8074 14.8953 20.9953 13.9781 21 13.0313C21.0031 12.0797 20.8183 11.1563 20.4551 10.2875ZM10.8739 13.75C10.4606 13.75 10.1239 13.4141 10.1239 13C10.1239 12.5859 10.4606 12.25 10.8739 12.25C11.2873 12.25 11.6239 12.5859 11.6239 13C11.6239 13.4141 11.2889 13.75 10.8739 13.75ZM13.9993 13.75C13.5859 13.75 13.2492 13.4141 13.2492 13C13.2492 12.5859 13.5859 12.25 13.9993 12.25C14.4126 12.25 14.7493 12.5859 14.7493 13C14.7493 13.4141 14.4126 13.75 13.9993 13.75ZM17.1246 13.75C16.7112 13.75 16.3746 13.4141 16.3746 13C16.3746 12.5859 16.7112 12.25 17.1246 12.25C17.538 12.25 17.8746 12.5859 17.8746 13C17.8746 13.4141 17.538 13.75 17.1246 13.75Z" fill="black"/>
</svg>
