<svg width="26" height="26" viewBox="0 0 26 26" fill="none" xmlns="http://www.w3.org/2000/svg">
<rect width="26" height="26" rx="13" fill="white"/>
<path d="M19 17.3333V18H7V17.3333L8.33333 16V12C8.33333 9.93333 9.68667 8.11333 11.6667 7.52667V7.33333C11.6667 6.97971 11.8071 6.64057 12.0572 6.39052C12.3072 6.14048 12.6464 6 13 6C13.3536 6 13.6928 6.14048 13.9428 6.39052C14.1929 6.64057 14.3333 6.97971 14.3333 7.33333V7.52667C16.3133 8.11333 17.6667 9.93333 17.6667 12V16L19 17.3333ZM14.3333 18.6667C14.3333 19.0203 14.1929 19.3594 13.9428 19.6095C13.6928 19.8595 13.3536 20 13 20C12.6464 20 12.3072 19.8595 12.0572 19.6095C11.8071 19.3594 11.6667 19.0203 11.6667 18.6667" fill="black"/>
</svg>
