<svg width="24" height="24" viewBox="0 0 24 24" fill="none" xmlns="http://www.w3.org/2000/svg">
<rect width="24" height="24" rx="12" fill="white"/>
<path d="M10.1164 18.0709C10.7273 18.2554 11.3445 18.3636 12 18.3636C13.6877 18.3636 15.3063 17.6932 16.4998 16.4998C17.6932 15.3063 18.3636 13.6877 18.3636 12C18.3636 11.1643 18.199 10.3368 17.8792 9.56473C17.5594 8.79266 17.0907 8.09114 16.4998 7.50022C15.9088 6.9093 15.2073 6.44056 14.4352 6.12076C13.6632 5.80095 12.8357 5.63635 12 5.63635C11.1643 5.63635 10.3368 5.80095 9.56473 6.12076C8.79266 6.44056 8.09114 6.9093 7.50022 7.50022C6.30681 8.69363 5.63635 10.3122 5.63635 12C5.63635 14.7045 7.33544 17.0273 9.73453 17.9436C9.67726 17.4473 9.61999 16.6264 9.73453 16.06L10.4664 12.9164C10.4664 12.9164 10.2818 12.5473 10.2818 11.9618C10.2818 11.0836 10.8291 10.4282 11.4527 10.4282C12 10.4282 12.2545 10.8291 12.2545 11.3445C12.2545 11.8918 11.8918 12.6745 11.7073 13.4254C11.5991 14.0491 12.0382 14.5964 12.6745 14.5964C13.8073 14.5964 14.6854 13.3873 14.6854 11.6818C14.6854 10.1545 13.5909 9.1109 12.0191 9.1109C10.2245 9.1109 9.16817 10.4473 9.16817 11.8536C9.16817 12.4009 9.34635 12.9545 9.63908 13.3173C9.69635 13.3554 9.69635 13.4064 9.67726 13.5018L9.49272 14.1954C9.49272 14.3036 9.42272 14.3418 9.31453 14.2654C8.49999 13.9091 8.02908 12.7509 8.02908 11.8154C8.02908 9.80453 9.45453 7.97817 12.2036 7.97817C14.3927 7.97817 16.0982 9.54999 16.0982 11.6373C16.0982 13.8264 14.7427 15.5827 12.8018 15.5827C12.1845 15.5827 11.58 15.2518 11.3636 14.8636L10.9373 16.3718C10.7909 16.9191 10.39 17.6509 10.1164 18.09V18.0709Z" fill="#F24E1E"/>
</svg>
