<svg width="68" height="24" viewBox="0 0 68 24" fill="none" xmlns="http://www.w3.org/2000/svg">
<path d="M10.1164 18.0709C10.7273 18.2554 11.3445 18.3636 12 18.3636C13.6877 18.3636 15.3063 17.6932 16.4998 16.4998C17.6932 15.3063 18.3636 13.6877 18.3636 12C18.3636 11.1643 18.199 10.3368 17.8792 9.56473C17.5594 8.79266 17.0907 8.09114 16.4998 7.50022C15.9088 6.9093 15.2073 6.44056 14.4352 6.12076C13.6632 5.80095 12.8357 5.63635 12 5.63635C11.1643 5.63635 10.3368 5.80095 9.56473 6.12076C8.79266 6.44056 8.09114 6.9093 7.50022 7.50022C6.30681 8.69363 5.63635 10.3122 5.63635 12C5.63635 14.7045 7.33544 17.0273 9.73453 17.9436C9.67726 17.4473 9.61999 16.6264 9.73453 16.06L10.4664 12.9164C10.4664 12.9164 10.2818 12.5473 10.2818 11.9618C10.2818 11.0836 10.8291 10.4282 11.4527 10.4282C12 10.4282 12.2545 10.8291 12.2545 11.3445C12.2545 11.8918 11.8918 12.6745 11.7073 13.4254C11.5991 14.0491 12.0382 14.5964 12.6745 14.5964C13.8073 14.5964 14.6854 13.3873 14.6854 11.6818C14.6854 10.1545 13.5909 9.1109 12.0191 9.1109C10.2245 9.1109 9.16817 10.4473 9.16817 11.8536C9.16817 12.4009 9.34635 12.9545 9.63908 13.3173C9.69635 13.3554 9.69635 13.4064 9.67726 13.5018L9.49272 14.1954C9.49272 14.3036 9.42272 14.3418 9.31453 14.2654C8.49999 13.9091 8.02908 12.7509 8.02908 11.8154C8.02908 9.80453 9.45453 7.97817 12.2036 7.97817C14.3927 7.97817 16.0982 9.54999 16.0982 11.6373C16.0982 13.8264 14.7427 15.5827 12.8018 15.5827C12.1845 15.5827 11.58 15.2518 11.3636 14.8636L10.9373 16.3718C10.7909 16.9191 10.39 17.6509 10.1164 18.09V18.0709Z" fill="#F24E1E"/>
<path d="M21.799 16V8.72727H24.3913C24.9571 8.72727 25.4259 8.83026 25.7976 9.03622C26.1693 9.24219 26.4474 9.52391 26.6321 9.88139C26.8168 10.2365 26.9091 10.6366 26.9091 11.0817C26.9091 11.5291 26.8156 11.9316 26.6286 12.2891C26.4439 12.6442 26.1645 12.9259 25.7905 13.1342C25.4188 13.3402 24.9512 13.4432 24.3878 13.4432H22.6051V12.5128H24.2884C24.6458 12.5128 24.9358 12.4512 25.1584 12.3281C25.3809 12.2027 25.5443 12.0322 25.6484 11.8168C25.7526 11.6013 25.8047 11.3563 25.8047 11.0817C25.8047 10.8071 25.7526 10.5632 25.6484 10.3501C25.5443 10.1371 25.3797 9.97017 25.1548 9.84943C24.9323 9.72869 24.6387 9.66832 24.2741 9.66832H22.8963V16H21.799ZM28.1103 16V10.5455H29.1721V16H28.1103ZM28.6465 9.70384C28.4618 9.70384 28.3032 9.64228 28.1706 9.51918C28.0404 9.3937 27.9753 9.24455 27.9753 9.07173C27.9753 8.89654 28.0404 8.7474 28.1706 8.62429C28.3032 8.49882 28.4618 8.43608 28.6465 8.43608C28.8311 8.43608 28.9886 8.49882 29.1188 8.62429C29.2514 8.7474 29.3176 8.89654 29.3176 9.07173C29.3176 9.24455 29.2514 9.3937 29.1188 9.51918C28.9886 9.64228 28.8311 9.70384 28.6465 9.70384ZM31.6623 12.7614V16H30.6005V10.5455H31.6197V11.4332H31.6871C31.8126 11.1444 32.0091 10.9124 32.2766 10.7372C32.5465 10.562 32.8862 10.4744 33.2958 10.4744C33.6675 10.4744 33.993 10.5526 34.2724 10.7088C34.5517 10.8627 34.7683 11.0923 34.9222 11.3977C35.0761 11.7031 35.1531 12.0807 35.1531 12.5305V16H34.0913V12.6584C34.0913 12.263 33.9883 11.9541 33.7823 11.7315C33.5763 11.5066 33.2934 11.3942 32.9336 11.3942C32.6874 11.3942 32.4684 11.4474 32.2766 11.554C32.0872 11.6605 31.9369 11.8168 31.8256 12.0227C31.7167 12.2263 31.6623 12.4725 31.6623 12.7614ZM39.1232 10.5455V11.3977H36.1438V10.5455H39.1232ZM36.9428 9.23864H38.0046V14.3984C38.0046 14.6044 38.0354 14.7595 38.0969 14.8636C38.1585 14.9654 38.2378 15.0353 38.3349 15.0732C38.4343 15.1087 38.542 15.1264 38.658 15.1264C38.7433 15.1264 38.8178 15.1205 38.8817 15.1087C38.9457 15.0968 38.9954 15.0874 39.0309 15.0803L39.2227 15.9574C39.1611 15.9811 39.0735 16.0047 38.9599 16.0284C38.8462 16.0545 38.7042 16.0687 38.5337 16.071C38.2544 16.0758 37.994 16.026 37.7525 15.9219C37.511 15.8177 37.3157 15.6567 37.1665 15.4389C37.0174 15.2211 36.9428 14.9477 36.9428 14.6186V9.23864ZM42.59 16.1101C42.0526 16.1101 41.5898 15.9953 41.2015 15.7656C40.8156 15.5336 40.5173 15.2081 40.3066 14.7891C40.0983 14.3677 39.9941 13.8741 39.9941 13.3082C39.9941 12.7495 40.0983 12.2571 40.3066 11.831C40.5173 11.4048 40.8109 11.0722 41.1873 10.8331C41.5661 10.594 42.0088 10.4744 42.5154 10.4744C42.8232 10.4744 43.1215 10.5253 43.4103 10.6271C43.6992 10.7289 43.9584 10.8887 44.188 11.1065C44.4177 11.3243 44.5988 11.6072 44.7314 11.9553C44.8639 12.3009 44.9302 12.7211 44.9302 13.2159V13.5923H40.5943V12.7969H43.8897C43.8897 12.5175 43.8329 12.2701 43.7193 12.0547C43.6056 11.8369 43.4458 11.6652 43.2399 11.5398C43.0363 11.4143 42.7972 11.3516 42.5225 11.3516C42.2243 11.3516 41.9638 11.425 41.7413 11.5717C41.5211 11.7161 41.3507 11.9055 41.2299 12.1399C41.1116 12.3719 41.0524 12.6241 41.0524 12.8963V13.5178C41.0524 13.8823 41.1163 14.1925 41.2441 14.4482C41.3743 14.7038 41.5555 14.8991 41.7875 15.0341C42.0195 15.1667 42.2905 15.233 42.6007 15.233C42.8019 15.233 42.9854 15.2045 43.1511 15.1477C43.3168 15.0885 43.46 15.0009 43.5808 14.8849C43.7015 14.7689 43.7939 14.6257 43.8578 14.4553L44.8627 14.6364C44.7823 14.9323 44.6378 15.1915 44.4295 15.4141C44.2235 15.6342 43.9643 15.8059 43.6518 15.929C43.3417 16.0497 42.9877 16.1101 42.59 16.1101ZM46.1083 16V10.5455H47.1346V11.4119H47.1914C47.2908 11.1184 47.466 10.8875 47.717 10.7195C47.9703 10.549 48.2567 10.4638 48.5763 10.4638C48.6426 10.4638 48.7208 10.4661 48.8107 10.4709C48.9031 10.4756 48.9753 10.4815 49.0273 10.4886V11.5043C48.9847 11.4924 48.909 11.4794 48.8001 11.4652C48.6912 11.4486 48.5823 11.4403 48.4734 11.4403C48.2224 11.4403 47.9987 11.4936 47.8022 11.6001C47.6081 11.7043 47.4542 11.8499 47.3406 12.0369C47.2269 12.2216 47.1701 12.4323 47.1701 12.669V16H46.1083ZM52.1017 16.1101C51.5643 16.1101 51.1015 15.9953 50.7132 15.7656C50.3274 15.5336 50.0291 15.2081 49.8184 14.7891C49.61 14.3677 49.5059 13.8741 49.5059 13.3082C49.5059 12.7495 49.61 12.2571 49.8184 11.831C50.0291 11.4048 50.3226 11.0722 50.699 10.8331C51.0778 10.594 51.5205 10.4744 52.0272 10.4744C52.3349 10.4744 52.6332 10.5253 52.9221 10.6271C53.2109 10.7289 53.4701 10.8887 53.6998 11.1065C53.9294 11.3243 54.1105 11.6072 54.2431 11.9553C54.3757 12.3009 54.4419 12.7211 54.4419 13.2159V13.5923H50.106V12.7969H53.4015C53.4015 12.5175 53.3446 12.2701 53.231 12.0547C53.1174 11.8369 52.9576 11.6652 52.7516 11.5398C52.548 11.4143 52.3089 11.3516 52.0343 11.3516C51.736 11.3516 51.4756 11.425 51.253 11.5717C51.0328 11.7161 50.8624 11.9055 50.7417 12.1399C50.6233 12.3719 50.5641 12.6241 50.5641 12.8963V13.5178C50.5641 13.8823 50.628 14.1925 50.7559 14.4482C50.8861 14.7038 51.0672 14.8991 51.2992 15.0341C51.5312 15.1667 51.8023 15.233 52.1124 15.233C52.3136 15.233 52.4971 15.2045 52.6628 15.1477C52.8285 15.0885 52.9718 15.0009 53.0925 14.8849C53.2132 14.7689 53.3056 14.6257 53.3695 14.4553L54.3745 14.6364C54.294 14.9323 54.1496 15.1915 53.9412 15.4141C53.7353 15.6342 53.476 15.8059 53.1635 15.929C52.8534 16.0497 52.4995 16.1101 52.1017 16.1101ZM59.7074 11.8771L58.745 12.0476C58.7048 11.9245 58.6409 11.8073 58.5533 11.696C58.468 11.5848 58.352 11.4936 58.2053 11.4226C58.0585 11.3516 57.875 11.3161 57.6548 11.3161C57.3542 11.3161 57.1032 11.3835 56.902 11.5185C56.7008 11.651 56.6001 11.8227 56.6001 12.0334C56.6001 12.2157 56.6676 12.3625 56.8026 12.4737C56.9375 12.585 57.1553 12.6761 57.456 12.7472L58.3224 12.946C58.8243 13.062 59.1984 13.2408 59.4446 13.4822C59.6908 13.7237 59.8139 14.0374 59.8139 14.4233C59.8139 14.75 59.7192 15.0412 59.5298 15.2969C59.3428 15.5502 59.0812 15.7491 58.745 15.8935C58.4112 16.0379 58.0241 16.1101 57.5838 16.1101C56.973 16.1101 56.4747 15.9799 56.0888 15.7195C55.7029 15.4567 55.4661 15.0838 55.3786 14.6009L56.4048 14.4446C56.4688 14.7121 56.6001 14.9145 56.799 15.0518C56.9979 15.1868 57.2571 15.2543 57.5767 15.2543C57.9247 15.2543 58.2029 15.1821 58.4112 15.0376C58.6196 14.8909 58.7237 14.7121 58.7237 14.5014C58.7237 14.331 58.6598 14.1877 58.532 14.0717C58.4065 13.9557 58.2135 13.8681 57.9531 13.8089L57.0298 13.6065C56.5208 13.4905 56.1444 13.3059 55.9006 13.0526C55.6591 12.7992 55.5384 12.4785 55.5384 12.0902C55.5384 11.7682 55.6283 11.4865 55.8082 11.245C55.9882 11.0036 56.2367 10.8153 56.554 10.6804C56.8712 10.5431 57.2346 10.4744 57.6442 10.4744C58.2337 10.4744 58.6977 10.6023 59.0362 10.858C59.3748 11.1113 59.5985 11.451 59.7074 11.8771ZM63.5275 10.5455V11.3977H60.5481V10.5455H63.5275ZM61.3471 9.23864H62.4089V14.3984C62.4089 14.6044 62.4397 14.7595 62.5012 14.8636C62.5628 14.9654 62.6421 15.0353 62.7392 15.0732C62.8386 15.1087 62.9463 15.1264 63.0623 15.1264C63.1475 15.1264 63.2221 15.1205 63.286 15.1087C63.35 15.0968 63.3997 15.0874 63.4352 15.0803L63.627 15.9574C63.5654 15.9811 63.4778 16.0047 63.3642 16.0284C63.2505 16.0545 63.1085 16.0687 62.938 16.071C62.6587 16.0758 62.3983 16.026 62.1568 15.9219C61.9153 15.8177 61.72 15.6567 61.5708 15.4389C61.4217 15.2211 61.3471 14.9477 61.3471 14.6186V9.23864Z" fill="#F24E1E"/>
</svg>
