<svg width="32" height="33" viewBox="0 0 32 33" fill="none" xmlns="http://www.w3.org/2000/svg">
<path d="M11.1467 31.7717C12.6667 32.2308 14.2025 32.5 15.8333 32.5C20.0326 32.5 24.0599 30.8318 27.0292 27.8625C29.9985 24.8932 31.6667 20.8659 31.6667 16.6667C31.6667 14.5874 31.2571 12.5285 30.4614 10.6075C29.6657 8.68652 28.4995 6.94106 27.0292 5.4708C25.5589 4.00054 23.8135 2.83427 21.8925 2.03857C19.9715 1.24287 17.9126 0.833328 15.8333 0.833328C13.7541 0.833328 11.6952 1.24287 9.77418 2.03857C7.85319 2.83427 6.10774 4.00054 4.63748 5.4708C1.66815 8.44013 0 12.4674 0 16.6667C0 23.3958 4.2275 29.175 10.1967 31.455C10.0542 30.22 9.91167 28.1775 10.1967 26.7683L12.0175 18.9467C12.0175 18.9467 11.5583 18.0283 11.5583 16.5717C11.5583 14.3867 12.92 12.7558 14.4717 12.7558C15.8333 12.7558 16.4667 13.7533 16.4667 15.0358C16.4667 16.3975 15.5642 18.345 15.105 20.2133C14.8358 21.765 15.9283 23.1267 17.5117 23.1267C20.33 23.1267 22.515 20.1183 22.515 15.875C22.515 12.075 19.7917 9.47833 15.8808 9.47833C11.4158 9.47833 8.7875 12.8033 8.7875 16.3025C8.7875 17.6642 9.23083 19.0417 9.95917 19.9442C10.1017 20.0392 10.1017 20.1658 10.0542 20.4033L9.595 22.1292C9.595 22.3983 9.42083 22.4933 9.15167 22.3033C7.125 21.4167 5.95333 18.535 5.95333 16.2075C5.95333 11.2042 9.5 6.65999 16.34 6.65999C21.7867 6.65999 26.03 10.5708 26.03 15.7642C26.03 21.2108 22.6575 25.5808 17.8283 25.5808C16.2925 25.5808 14.7883 24.7575 14.25 23.7917L13.1892 27.5442C12.825 28.9058 11.8275 30.7267 11.1467 31.8192V31.7717Z" fill="#545454"/>
</svg>
